<?xml version="1.0" standalone="no"?>
<!DOCTYPE svg PUBLIC "-//W3C//DTD SVG 20010904//EN"
 "http://www.w3.org/TR/2001/REC-SVG-20010904/DTD/svg10.dtd">
<svg version="1.0" xmlns="http://www.w3.org/2000/svg"
 width="488.000000pt" height="362.000000pt" viewBox="0 0 488.000000 362.000000"
 preserveAspectRatio="xMidYMid meet">

<g transform="translate(0.000000,362.000000) scale(0.100000,-0.100000)"
fill="#000000" stroke="none">
<path d="M0 1810 l0 -1810 2440 0 2440 0 0 1810 0 1810 -2440 0 -2440 0 0
-1810z m3858 1649 c476 -44 795 -284 898 -674 27 -99 27 -389 0 -490 -40 -156
-144 -321 -262 -415 -31 -25 -67 -54 -81 -65 l-25 -20 75 -48 c105 -66 208
-179 257 -281 67 -139 75 -184 74 -411 0 -188 -2 -205 -27 -288 -99 -321 -324
-521 -686 -610 -82 -20 -120 -21 -829 -26 -409 -3 -746 -3 -748 0 -4 7 143
129 459 382 l158 127 382 0 c313 -1 392 2 440 14 206 55 307 194 307 420 0
150 -43 262 -130 338 -58 52 -104 74 -198 100 -68 18 -116 21 -403 25 l-327 5
-4 242 c-2 132 -3 244 -1 249 3 4 149 7 327 7 287 0 331 2 399 19 203 52 307
205 307 452 0 198 -73 321 -233 394 -105 49 -182 56 -563 58 l-351 2 -64 60
c-36 33 -167 145 -292 248 -125 104 -225 192 -223 196 7 11 1235 2 1364 -10z
m-2403 0 c273 -33 484 -132 636 -297 81 -89 125 -161 165 -276 45 -130 57
-219 51 -382 -5 -162 -21 -232 -82 -359 -63 -132 -128 -206 -284 -325 l-33
-26 63 -39 c79 -48 193 -162 238 -238 146 -246 147 -642 1 -915 -98 -185 -300
-341 -538 -416 -173 -54 -200 -56 -908 -56 l-654 0 0 1670 0 1670 628 0 c394
0 660 -4 717 -11z m1230 -340 c83 -72 203 -175 268 -230 81 -69 117 -107 118
-122 1 -30 1 -112 0 -174 l-1 -53 -275 0 -275 0 0 333 c0 182 -3 342 -6 355
-4 15 -2 22 7 22 8 0 82 -59 164 -131z m383 -671 l-3 -73 -210 -3 c-115 -2
-238 0 -272 3 l-63 7 0 62 c0 35 3 66 7 69 3 4 127 7 275 7 l269 0 -3 -72z m2
-750 l0 -662 -24 -21 c-152 -128 -464 -384 -485 -397 l-28 -18 -6 272 c-4 149
-7 349 -7 444 l0 173 101 3 c67 2 104 -1 110 -9 6 -6 9 -97 7 -217 l-3 -206
60 0 60 0 0 643 0 642 85 6 c47 3 95 6 108 7 l22 2 0 -662z m-332 235 l-3
-418 -105 0 -105 0 -3 418 -2 417 110 0 110 0 -2 -417z"/>
<path d="M855 2962 l-220 -2 1 -1133 c0 -622 1 -1144 2 -1159 l2 -28 359 0
c391 0 457 7 558 56 70 34 139 103 169 168 57 125 54 330 -6 453 -47 96 -136
162 -267 200 -47 13 -121 17 -395 21 -186 2 -338 7 -338 10 -1 4 -1 115 -2
247 l-1 240 344 6 c320 5 349 7 411 27 131 44 217 127 260 252 19 55 23 85 23
195 -1 155 -19 214 -91 294 -123 137 -245 160 -809 153z"/>
</g>
</svg>
